<?xml version="1.0" encoding="UTF-8"?>
<svg version="1.1" xmlns="http://www.w3.org/2000/svg" width="360" height="74">
<path d="M0 0 C4.62 0 9.24 0 14 0 C14.78246094 1.93746094 15.56492188 3.87492187 16.37109375 5.87109375 C17.12880469 7.74104094 17.88653331 9.61098101 18.64477539 11.48071289 C19.17238314 12.78307694 19.69907915 14.08581073 20.22485352 15.38891602 C20.97954912 17.25893934 21.73776804 19.12753954 22.49609375 20.99609375 C22.95169678 22.12200928 23.4072998 23.2479248 23.87670898 24.40795898 C24.76079613 26.88334172 24.76079613 26.88334172 26 28 C29.63 18.76 33.26 9.52 37 0 C41.62 0 46.24 0 51 0 C51 14.85 51 29.7 51 45 C47.37 45 43.74 45 40 45 C39.505 34.605 39.505 34.605 39 24 C36.36 30.93 33.72 37.86 31 45 C27.37 45 23.74 45 20 45 C16.535 35.595 16.535 35.595 13 26 C12.67 32.27 12.34 38.54 12 45 C8.04 45 4.08 45 0 45 C0 30.15 0 15.3 0 0 Z " fill="#FE0E0E" transform="translate(216,21)"/>
<path d="M0 0 C5.49934559 4.68169709 7.70935268 10.94820317 8.375 17.9375 C8.03247465 25.5177349 5.39743727 31.72523176 0 37 C-6.34689543 41.44995815 -12.368947 42.8227229 -20 42 C-27.62181729 40.17587604 -32.70221812 36.55655928 -37 30 C-40.07444425 23.76857609 -40.11511225 16.29812255 -38.3828125 9.62109375 C-35.57798057 3.27919501 -30.28422363 -1.32139681 -24.1875 -4.4375 C-14.96240839 -6.06545734 -7.85912499 -5.38627192 0 0 Z M-26 11 C-27.35609289 15.06827866 -27.5298986 18.74629346 -27 23 C-25.37854397 26.18500291 -24.02671736 28.22111096 -21.1875 30.375 C-16.95806242 31.58341074 -13.35246673 31.52254396 -9.25 29.9375 C-6.26715477 27.36893883 -4.8307082 24.78919529 -4 21 C-3.70641695 15.95727945 -4.22527953 12.92966457 -7.5 9 C-8.7375 8.01 -8.7375 8.01 -10 7 C-10.33 6.67 -10.66 6.34 -11 6 C-17.75442866 5.00461051 -21.36051051 6.01254879 -26 11 Z " fill="#969191" transform="translate(161,25)"/>
<path d="M0 0 C6.001875 -0.0928125 6.001875 -0.0928125 12.125 -0.1875 C13.37555176 -0.21481201 14.62610352 -0.24212402 15.91455078 -0.27026367 C23.08188446 -0.32395805 27.85214543 0.10737688 33.3125 5.125 C35.61149338 9.04180354 36.19202373 12.4794414 36 17 C34.2525922 22.34501209 31.21667812 24.59004049 27 28 C27.6496875 29.14339844 28.299375 30.28679688 28.96875 31.46484375 C29.81261164 32.95566598 30.65635558 34.44655484 31.5 35.9375 C31.92925781 36.69224609 32.35851562 37.44699219 32.80078125 38.22460938 C33.20683594 38.94326172 33.61289063 39.66191406 34.03125 40.40234375 C34.59682617 41.39995728 34.59682617 41.39995728 35.17382812 42.41772461 C36 44 36 44 36 45 C31.38 45 26.76 45 22 45 C20.66161267 42.54429825 19.32913768 40.08570084 18 37.625 C17.6184375 36.92632812 17.236875 36.22765625 16.84375 35.5078125 C14 30.2265625 14 30.2265625 14 28 C13.34 28 12.68 28 12 28 C12 33.61 12 39.22 12 45 C8.04 45 4.08 45 0 45 C0 30.15 0 15.3 0 0 Z M12 10 C12 13.3 12 16.6 12 20 C17.617863 20.51329263 17.617863 20.51329263 22.5625 18.3125 C24.26862989 16.07137874 24.26862989 16.07137874 23.8125 13.3125 C23.21073101 11.06648733 23.21073101 11.06648733 22 10 C18.66381769 9.85742811 15.34024394 9.95771843 12 10 Z " fill="#958F8F" transform="translate(174,21)"/>
<path d="M0 0 C1.93166016 0.01740234 1.93166016 0.01740234 3.90234375 0.03515625 C5.19269531 0.04417969 6.48304688 0.05320312 7.8125 0.0625 C8.81152344 0.07410156 9.81054688 0.08570312 10.83984375 0.09765625 C13.12072376 6.3448083 15.39912904 12.59285872 17.67578125 18.84155273 C18.45124689 20.96904143 19.22728776 23.09632054 20.00390625 25.22338867 C21.11738449 28.27338168 22.22882029 31.32411207 23.33984375 34.375 C23.68982422 35.332285 24.03980469 36.28957001 24.40039062 37.27586365 C24.72072266 38.1567012 25.04105469 39.03753876 25.37109375 39.94506836 C25.65533203 40.72450302 25.93957031 41.50393768 26.23242188 42.30699158 C26.83984375 44.09765625 26.83984375 44.09765625 26.83984375 45.09765625 C22.54984375 45.09765625 18.25984375 45.09765625 13.83984375 45.09765625 C11.83984375 41.09765625 11.83984375 41.09765625 11.83984375 38.09765625 C6.22984375 38.09765625 0.61984375 38.09765625 -5.16015625 38.09765625 C-5.82015625 40.40765625 -6.48015625 42.71765625 -7.16015625 45.09765625 C-11.12015625 45.09765625 -15.08015625 45.09765625 -19.16015625 45.09765625 C-18.5028093 39.82044544 -16.88458523 35.18236644 -15.03515625 30.234375 C-14.72819824 29.40178665 -14.42124023 28.5691983 -14.10498047 27.71138 C-13.45858725 25.9615156 -12.80961284 24.21260276 -12.15820312 22.46459961 C-11.15779162 19.77880795 -10.16617253 17.0898913 -9.17578125 14.40039062 C-8.54608528 12.69902903 -7.91589444 10.99785049 -7.28515625 9.296875 C-6.98722168 8.489655 -6.68928711 7.682435 -6.38232422 6.85075378 C-3.86734905 0.11951017 -3.86734905 0.11951017 0 0 Z M2.83984375 14.09765625 C2.16952656 16.05474305 1.50369692 18.01336738 0.83984375 19.97265625 C0.46859375 21.06320313 0.09734375 22.15375 -0.28515625 23.27734375 C-1.25892825 25.92386479 -1.25892825 25.92386479 -1.16015625 28.09765625 C1.80984375 28.09765625 4.77984375 28.09765625 7.83984375 28.09765625 C7.388416 26.32504994 6.92843852 24.55461945 6.46484375 22.78515625 C6.08199219 21.30595703 6.08199219 21.30595703 5.69140625 19.796875 C4.92071201 16.91707465 4.92071201 16.91707465 2.83984375 14.09765625 Z " fill="#FE1515" transform="translate(291.16015625,20.90234375)"/>
<path d="M0 0 C1.93166016 0.01740234 1.93166016 0.01740234 3.90234375 0.03515625 C5.19269531 0.04417969 6.48304687 0.05320312 7.8125 0.0625 C8.81152344 0.07410156 9.81054688 0.08570312 10.83984375 0.09765625 C13.12072376 6.3448083 15.39912904 12.59285872 17.67578125 18.84155273 C18.45124689 20.96904143 19.22728776 23.09632054 20.00390625 25.22338867 C21.11738449 28.27338168 22.22882029 31.32411207 23.33984375 34.375 C23.68982422 35.332285 24.03980469 36.28957001 24.40039062 37.27586365 C24.72072266 38.1567012 25.04105469 39.03753876 25.37109375 39.94506836 C25.65533203 40.72450302 25.93957031 41.50393768 26.23242188 42.30699158 C26.83984375 44.09765625 26.83984375 44.09765625 26.83984375 45.09765625 C22.54984375 45.09765625 18.25984375 45.09765625 13.83984375 45.09765625 C13.17984375 42.78765625 12.51984375 40.47765625 11.83984375 38.09765625 C6.22984375 38.09765625 0.61984375 38.09765625 -5.16015625 38.09765625 C-5.65515625 40.57265625 -5.65515625 40.57265625 -6.16015625 43.09765625 C-6.49015625 43.75765625 -6.82015625 44.41765625 -7.16015625 45.09765625 C-11.12015625 45.09765625 -15.08015625 45.09765625 -19.16015625 45.09765625 C-18.49853432 41.7895466 -17.89026152 39.06823512 -16.77734375 35.96582031 C-16.50035645 35.18861633 -16.22336914 34.41141235 -15.93798828 33.61065674 C-15.64005371 32.78652283 -15.34211914 31.96238892 -15.03515625 31.11328125 C-14.57471924 29.82898224 -14.57471924 29.82898224 -14.10498047 28.51873779 C-13.45776201 26.71614226 -12.80879955 24.91417207 -12.15820312 23.11279297 C-11.1592447 20.34513077 -10.16713562 17.57508126 -9.17578125 14.8046875 C-8.54597876 13.05323943 -7.91578415 11.3019323 -7.28515625 9.55078125 C-6.98722168 8.71855042 -6.68928711 7.88631958 -6.38232422 7.02886963 C-3.87942974 0.11988349 -3.87942974 0.11988349 0 0 Z M2.83984375 14.09765625 C2.16952656 16.05474305 1.50369692 18.01336738 0.83984375 19.97265625 C0.46859375 21.06320313 0.09734375 22.15375 -0.28515625 23.27734375 C-1.25892825 25.92386479 -1.25892825 25.92386479 -1.16015625 28.09765625 C1.80984375 28.09765625 4.77984375 28.09765625 7.83984375 28.09765625 C7.2082738 23.04509661 5.70525002 18.80172424 3.83984375 14.09765625 C3.50984375 14.09765625 3.17984375 14.09765625 2.83984375 14.09765625 Z " fill="#969090" transform="translate(53.16015625,20.90234375)"/>
<path d="M0 0 C2.96180314 2.52275938 4.45879205 5.76254764 5.66015625 9.4140625 C5.66015625 10.0740625 5.66015625 10.7340625 5.66015625 11.4140625 C3.53577286 11.49484891 1.41052395 11.55315391 -0.71484375 11.6015625 C-1.89820313 11.63636719 -3.0815625 11.67117187 -4.30078125 11.70703125 C-5.80511719 11.56201172 -5.80511719 11.56201172 -7.33984375 11.4140625 C-7.99984375 10.4240625 -8.65984375 9.4340625 -9.33984375 8.4140625 C-12.42350246 8.1638468 -12.42350246 8.1638468 -15.33984375 8.4140625 C-15.4126034 10.84113185 -15.4126034 10.84113185 -14.33984375 13.4140625 C-11.8689193 14.64048476 -9.69107968 15.52612323 -7.08984375 16.3515625 C-1.10321935 18.26059205 2.12282566 20.08448441 5.66015625 25.4140625 C6.85581215 29.86992299 6.03595837 33.58416615 4.16015625 37.7265625 C-0.08671047 42.29194422 -4.55730838 44.60199719 -10.83984375 44.8515625 C-16.84846548 44.53041203 -22.11972869 43.14039155 -26.27734375 38.6015625 C-28.33984375 35.4140625 -28.33984375 35.4140625 -29.33984375 29.4140625 C-25.04984375 29.4140625 -20.75984375 29.4140625 -16.33984375 29.4140625 C-15.67984375 30.7340625 -15.01984375 32.0540625 -14.33984375 33.4140625 C-12.35984375 33.4140625 -10.37984375 33.4140625 -8.33984375 33.4140625 C-8.00984375 32.0940625 -7.67984375 30.7740625 -7.33984375 29.4140625 C-10.76887924 27.20879511 -13.95177085 25.79747256 -17.83984375 24.6015625 C-23.12791003 22.68900951 -25.6840204 21.45096886 -28.33984375 16.4140625 C-29.16493062 11.31352547 -29.18690295 7.04041617 -26.77734375 2.4140625 C-19.14096678 -3.85168271 -8.71818246 -4.97670374 0 0 Z " fill="#FE1515" transform="translate(349.33984375,22.5859375)"/>
<path d="M0 0 C4.00125 -0.0825 8.0025 -0.165 12.125 -0.25 C13.37555176 -0.28641602 14.62610352 -0.32283203 15.91455078 -0.36035156 C22.25217921 -0.42365637 26.23673799 -0.36027876 31 4 C33.90228418 7.30259924 34.91559053 9.88157448 35.25 14.3125 C34.88898229 19.6375112 33.41468242 22.69141877 29.5 26.3125 C24.00170983 30.02384586 18.42655818 29.06910278 12 29 C12 34.28 12 39.56 12 45 C8.04 45 4.08 45 0 45 C0 30.15 0 15.3 0 0 Z M12 9 C12 12.63 12 16.26 12 20 C16.96551325 20.35606813 16.96551325 20.35606813 21.4375 18.5 C21.953125 18.005 22.46875 17.51 23 17 C22.73343428 14.06556598 22.73343428 14.06556598 22 11 C18.3558226 8.5705484 16.28758728 8.83820425 12 9 Z " fill="#948E8E" transform="translate(84,21)"/>
<path d="M0 0 C3.96 0 7.92 0 12 0 C12 11.88 12 23.76 12 36 C16.62 36 21.24 36 26 36 C26 38.97 26 41.94 26 45 C17.42 45 8.84 45 0 45 C0 30.15 0 15.3 0 0 Z " fill="#969090" transform="translate(6,21)"/>
<path d="M0 0 C0.99 0.33 1.98 0.66 3 1 C2.21625 1.763125 1.4325 2.52625 0.625 3.3125 C-2.07257717 5.90891805 -2.07257717 5.90891805 -4 9 C-3.38461538 3.46153846 -3.38461538 3.46153846 -1.4375 1.125 C-0.963125 0.75375 -0.48875 0.3825 0 0 Z " fill="#FE5656" transform="translate(325,23)"/>
</svg>
